<?xml version="1.0" ?><svg style="enable-background:new 0 0 70 70;" version="1.1" viewBox="0 0 70 70" xml:space="preserve" xmlns="http://www.w3.org/2000/svg" xmlns:xlink="http://www.w3.org/1999/xlink"><style type="text/css">
	.st0{fill:#E2134E;}
	.st1{fill:#231F20;}
	.st2{fill:#E5E5E5;}
</style><g id="Warstwa_2"><rect class="st0" height="70" id="XMLID_5_" width="70"/></g><g id="Warstwa_3"/><g id="Warstwa_4"/><g id="Warstwa_1"><rect class="st1" height="7" id="XMLID_1_" width="70"/><rect class="st1" height="3.5" id="XMLID_6_" width="70" y="66.5"/><path class="st0" d="M5.5,5L5.5,5C4.7,5,4,4.3,4,3.5v0C4,2.7,4.7,2,5.5,2h0C6.3,2,7,2.7,7,3.5v0C7,4.3,6.3,5,5.5,5z" id="XMLID_2_"/><path class="st0" d="M12.5,5L12.5,5C11.7,5,11,4.3,11,3.5v0C11,2.7,11.7,2,12.5,2h0C13.3,2,14,2.7,14,3.5v0   C14,4.3,13.3,5,12.5,5z" id="XMLID_3_"/><path class="st0" d="M19.5,5L19.5,5C18.7,5,18,4.3,18,3.5v0C18,2.7,18.7,2,19.5,2h0C20.3,2,21,2.7,21,3.5v0   C21,4.3,20.3,5,19.5,5z" id="XMLID_4_"/><g id="XMLID_7_"><polygon class="st2" id="XMLID_19_" points="22.3,21.1 22.3,48.2 19.6,48.2 19.6,42.1 7,42.1 21.7,21.1   "/><path class="st2" d="M45.6,35c0,3.3-0.4,5.9-1.2,7.9c-0.8,2-1.9,3.5-3.3,4.4c-1.4,1-3,1.5-4.7,1.5    c-1.7,0-3.2-0.5-4.6-1.4c-1.3-1-2.4-2.4-3.2-4.4c-0.7-1.9-1.1-4.6-1.1-8.1c0-3.5,0.4-6.2,1.1-8.1c0.7-1.9,1.8-3.3,3.2-4.3    c1.4-1,2.9-1.5,4.6-1.5c1.7,0,3.3,0.5,4.6,1.5c1.4,1,2.5,2.5,3.3,4.4C45.2,29,45.6,31.7,45.6,35z" id="XMLID_25_"/><polygon class="st2" id="XMLID_20_" points="63,21.1 63,48.2 60.4,48.2 60.4,42.1 47.8,42.1 62.5,21.1   "/></g></g></svg>