<svg xmlns="http://www.w3.org/2000/svg" xmlns:xlink="http://www.w3.org/1999/xlink" version="1.1" id="Layer_1" x="0px" y="0px" width="108.997px" height="165.167px" viewBox="0 0 108.997 165.167" enable-background="new 0 0 108.997 165.167" xml:space="preserve"><g><linearGradient id="SVGID_1_" gradientUnits="userSpaceOnUse" x1="54.4985" y1="-9.765625e-04" x2="54.4985" y2="165.002"><stop offset="0" style="stop-color:#ED1C24"/><stop offset="1" style="stop-color:#F47920"/></linearGradient><path fill="url(#SVGID_1_)" d="M60,165.001c-24.833,0-60-23.167-60-73.333C0,86.502,0.834,82,0.834,82S2.166,85.168,6,87.668   c3.834,2.5,8.5,3.167,8.5,3.167s-0.503-5.167-0.503-13.503c0-74,70.666-77.333,70.666-77.333s-5,16.667-5,38.167   s8.666,50.836,13.5,50.836c1.834,0,3.5-2.667,3.5-6.669c0-17-4.666-26.333-4.666-26.333s17,9.834,17,42.836   C108.997,131.835,87.836,165.001,60,165.001z"/><linearGradient id="SVGID_2_" gradientUnits="userSpaceOnUse" x1="54.7485" y1="24.5" x2="54.7485" y2="165.002"><stop offset="0" style="stop-color:#F47920"/><stop offset="1" style="stop-color:#FFC20E"/></linearGradient><path fill="url(#SVGID_2_)" d="M60,165.001c-44.003,0-51.669-54.833-51.669-54.833s2.499,0.334,6.166,0.334s10.5-6.333,10.5-27.002   c0-33.5,18.166-45.833,18.166-45.833s-1.167,3.333-1.167,8s0.999,6.833,2.333,6.833s6.333-12.5,15-20.167s12.5-7.833,12.5-7.833   s-2.833,6.167-2.833,20.833C68.996,86.002,88.167,108,93.667,108s7-4.833,7-4.833s0.5,5.833,0.5,9.833   C101.167,129.833,83.667,165.001,60,165.001z"/><linearGradient id="SVGID_3_" gradientUnits="userSpaceOnUse" x1="55.3325" y1="55.8315" x2="55.3325" y2="165.168"><stop offset="0" style="stop-color:#FFC20E"/><stop offset="1" style="stop-color:#FFF200"/></linearGradient><path fill="url(#SVGID_3_)" d="M59.167,165.167c-22.334,0-33.334-13.001-33.334-54.334c0-41.335,38.334-55.002,38.334-55.002   s-2.168,31.836,1.166,31.836s6.167-5.502,6.167-5.502S70,87.833,70,94.833s14.833,17.333,14.833,34S77.333,165.167,59.167,165.167z   "/><linearGradient id="SVGID_4_" gradientUnits="userSpaceOnUse" x1="54.4175" y1="164.8345" x2="54.4175" y2="81.8325"><stop offset="0" style="stop-color:#FFFFFF"/><stop offset="1" style="stop-color:#FFF200"/></linearGradient><path fill="url(#SVGID_4_)" d="M55.834,164.834c-14.833,0-25-12.834-25-34.334c0-36.833,26.834-48.668,26.834-48.668   S54.834,91,54.834,103.167s4,17.167,6,17.167c4.167,0,5.834-5.5,5.834-5.5s11.333,13.167,11.333,27S69,164.834,55.834,164.834z"/></g></svg>